# https://github.com/mikedh/trimesh
v -0.01500000 0.01500000 0.00000000
v -0.01500000 0.01500000 0.00000000
v -0.01500000 0.01500000 0.00000000
v -0.01500000 -0.01500000 0.00000000
v -0.01500000 -0.01500000 0.00000000
v -0.01500000 -0.01500000 0.00000000
v -0.01500000 -0.01500000 0.06000000
v -0.01500000 -0.01500000 0.06000000
v -0.01500000 -0.01500000 0.06000000
v -0.01500000 0.01500000 0.06000000
v -0.01500000 0.01500000 0.06000000
v -0.01500000 0.01500000 0.06000000
v 0.01500000 0.01500000 0.00000000
v 0.01500000 0.01500000 0.00000000
v 0.01500000 0.01500000 0.00000000
v 0.01500000 0.01500000 0.06000000
v 0.01500000 0.01500000 0.06000000
v 0.01500000 0.01500000 0.06000000
v 0.01500000 -0.01500000 0.00000000
v 0.01500000 -0.01500000 0.00000000
v 0.01500000 -0.01500000 0.00000000
v 0.01500000 -0.01500000 0.06000000
v 0.01500000 -0.01500000 0.06000000
v 0.01500000 -0.01500000 0.06000000
vn -100.00000000 0.00000000 0.00000000
vn 0.00000000 100.00000000 0.00000000
vn -0.00000000 0.00000000 -100.00000000
vn -100.00000000 0.00000000 0.00000000
vn -0.00000000 0.00000000 -100.00000000
vn 0.00000000 -100.00000000 0.00000000
vn -100.00000000 0.00000000 0.00000000
vn 0.00000000 -100.00000000 0.00000000
vn 0.00000000 0.00000000 100.00000000
vn 0.00000000 100.00000000 0.00000000
vn 0.00000000 0.00000000 100.00000000
vn -100.00000000 0.00000000 0.00000000
vn 0.00000000 100.00000000 0.00000000
vn 100.00000000 0.00000000 0.00000000
vn -0.00000000 0.00000000 -100.00000000
vn 0.00000000 0.00000000 100.00000000
vn 100.00000000 0.00000000 0.00000000
vn 0.00000000 100.00000000 0.00000000
vn 100.00000000 0.00000000 0.00000000
vn -0.00000000 0.00000000 -100.00000000
vn 0.00000000 -100.00000000 0.00000000
vn 0.00000000 0.00000000 100.00000000
vn 100.00000000 0.00000000 0.00000000
vn 0.00000000 -100.00000000 0.00000000
f 1//1 4//4 12//12
f 12//12 4//4 7//7
f 13//13 2//2 18//18
f 18//18 2//2 10//10
f 19//19 14//14 23//23
f 23//23 14//14 17//17
f 6//6 21//21 8//8
f 8//8 21//21 24//24
f 9//9 22//22 11//11
f 11//11 22//22 16//16
f 20//20 5//5 15//15
f 15//15 5//5 3//3