# https://github.com/mikedh/trimesh
v 0.00000000 0.00000000 0.00000000
v 0.00000000 0.00000000 0.00000000
v 0.00000000 0.00000000 0.00000000
v 0.00000000 0.00000000 -0.01000000
v 0.00000000 0.00000000 -0.01000000
v 0.00000000 0.00000000 -0.01000000
v 0.00000000 0.50000000 0.00000000
v 0.00000000 0.50000000 0.00000000
v 0.00000000 0.50000000 0.00000000
v 0.00000000 0.50000000 -0.01000000
v 0.00000000 0.50000000 -0.01000000
v 0.00000000 0.50000000 -0.01000000
v 0.50000000 0.00000000 0.00000000
v 0.50000000 0.00000000 0.00000000
v 0.50000000 0.00000000 0.00000000
v 0.50000000 0.00000000 -0.01000000
v 0.50000000 0.00000000 -0.01000000
v 0.50000000 0.00000000 -0.01000000
v 0.50000000 0.50000000 0.00000000
v 0.50000000 0.50000000 0.00000000
v 0.50000000 0.50000000 0.00000000
v 0.50000000 0.50000000 -0.01000000
v 0.50000000 0.50000000 -0.01000000
v 0.50000000 0.50000000 -0.01000000
vn 0.00000000 0.00000000 1.00000000
vn 0.00000000 -1.00000000 0.00000000
vn -1.00000000 0.00000000 0.00000000
vn 0.00000000 0.00000000 -1.00000000
vn 0.00000000 -1.00000000 0.00000000
vn -1.00000000 0.00000000 0.00000000
vn 0.00000000 0.00000000 1.00000000
vn 0.00000000 1.00000000 0.00000000
vn -1.00000000 0.00000000 0.00000000
vn 0.00000000 0.00000000 -1.00000000
vn 0.00000000 1.00000000 0.00000000
vn -1.00000000 0.00000000 0.00000000
vn 0.00000000 0.00000000 1.00000000
vn 0.00000000 -1.00000000 0.00000000
vn 1.00000000 0.00000000 0.00000000
vn 0.00000000 0.00000000 -1.00000000
vn 0.00000000 -1.00000000 0.00000000
vn 1.00000000 0.00000000 0.00000000
vn 0.00000000 0.00000000 1.00000000
vn 0.00000000 1.00000000 0.00000000
vn 1.00000000 0.00000000 0.00000000
vn 0.00000000 0.00000000 -1.00000000
vn 0.00000000 1.00000000 0.00000000
vn 1.00000000 0.00000000 0.00000000
f 21//21 15//15 24//24
f 24//24 15//15 18//18
f 8//8 20//20 11//11
f 11//11 20//20 23//23
f 3//3 9//9 6//6
f 6//6 9//9 12//12
f 14//14 2//2 17//17
f 17//17 2//2 5//5
f 1//1 13//13 7//7
f 7//7 13//13 19//19
f 16//16 4//4 22//22
f 22//22 4//4 10//10